<?xml version="1.0" encoding="UTF-8"?><svg width="30" height="24" viewBox="0 0 30 24" fill="none" xmlns="http://www.w3.org/2000/svg">
<path d="M12.0174 18.6103C12.5836 18.6103 13.0426 17.9456 13.0426 17.1256C13.0426 16.3056 12.5836 15.6409 12.0174 15.6409C11.4512 15.6409 10.9921 16.3056 10.9921 17.1256C10.9921 17.9456 11.4512 18.6103 12.0174 18.6103Z" fill="#0176D3"/>
<path d="M18.3045 18.6103C18.8707 18.6103 19.3297 17.9456 19.3297 17.1256C19.3297 16.3056 18.8707 15.6409 18.3045 15.6409C17.7383 15.6409 17.2792 16.3056 17.2792 17.1256C17.2792 17.9456 17.7383 18.6103 18.3045 18.6103Z" fill="#0176D3"/>
<path d="M20.0743 21.5943C19.5783 21.1638 18.3669 20.2429 16.7206 19.8484C16.4534 20.2562 15.9068 20.5361 15.2752 20.5361C14.6435 20.5361 14.0638 20.2389 13.8058 19.8124C12.7991 20.031 11.7207 20.5121 10.605 21.3811C10.3271 21.597 10.1436 21.9368 10.1449 22.3033C10.1449 24.7236 12.6515 22.7671 15.1555 22.8071C17.7153 22.8484 20.4028 24.5357 20.4028 22.3447C20.4188 22.0554 20.2858 21.7796 20.0743 21.5956V21.5943Z" fill="#0176D3"/>
<path d="M11.1079 23.7267C10.818 23.7267 10.5694 23.6654 10.3672 23.5095C10.0747 23.2829 9.93372 22.8884 9.93372 22.3007C9.93239 21.8848 10.1345 21.477 10.4763 21.2105C11.5321 20.3882 12.6372 19.8471 13.7621 19.6032C13.8499 19.5832 13.9417 19.6232 13.9882 19.7005C14.2169 20.0776 14.7222 20.3229 15.2754 20.3229C15.8286 20.3229 16.3087 20.091 16.544 19.7311C16.5932 19.6565 16.6837 19.6205 16.7701 19.6418C18.4868 20.0537 19.7501 21.0319 20.2129 21.4344C20.4828 21.6689 20.6331 22.0128 20.6145 22.3553C20.6145 22.8524 20.4815 23.2069 20.2062 23.4282C19.665 23.8626 18.7023 23.6454 17.5879 23.3948C16.8326 23.2243 15.9762 23.0323 15.1518 23.019C14.3007 23.0057 13.447 23.2309 12.6903 23.4295C12.0787 23.5894 11.5454 23.7294 11.1066 23.7294L11.1079 23.7267ZM13.7129 20.0497C12.6983 20.2936 11.697 20.7973 10.7356 21.5463C10.4975 21.7316 10.3553 22.0141 10.3566 22.2993C10.3566 22.7471 10.4444 23.0337 10.6252 23.1736C10.9683 23.4402 11.717 23.2429 12.5826 23.0163C13.3659 22.8111 14.2502 22.5752 15.1584 22.5925C16.0268 22.6072 16.9057 22.8044 17.681 22.979C18.689 23.2056 19.5586 23.4015 19.9416 23.095C20.1092 22.9604 20.1916 22.7138 20.1916 22.342C20.2036 22.1181 20.1078 21.9035 19.9363 21.7542C19.5081 21.3837 18.3632 20.4948 16.8073 20.0883C16.4709 20.4988 15.8991 20.748 15.2754 20.748C14.6518 20.748 14.0441 20.4841 13.7129 20.051V20.0497Z" fill="#0176D3"/>
<path d="M7.88441 22.362C5.81528 23.5694 3.92301 22.5419 3.20626 22.0128C4.4137 21.1812 4.82859 20.8893 4.88311 20.2696C3.2435 20.3309 2.04005 20.1923 0.454956 17.5055C2.10388 17.019 1.7342 16.6498 4.43364 15.7756C4.35918 15.3051 2.25281 15.6116 1.51346 14.8613C2.15707 14.3882 2.85254 12.3771 3.58126 12.0505C2.69563 12.0612 1.81 12.0719 0.924367 12.0839C1.44032 10.3153 3.01876 8.752 4.58391 7.78309C4.34322 7.46457 3.6637 7.18336 3.3419 6.94747C4.46822 5.87861 7.22219 5.11894 8.37377 5.99589C8.19691 3.17847 10.536 2.41747 10.516 0.389038C11.7155 0.756875 13.4735 2.35084 13.7407 3.57962C14.52 2.60806 17.012 1.63782 18.5372 1.25265C19.0997 1.5232 19.4654 2.10161 19.629 2.70401C19.7926 3.30641 19.7806 4.72578 19.7686 5.35084C23.8244 3.70224 26.1635 5.75333 26.9813 6.83018C26.7526 7.25266 26.0132 7.91104 25.613 8.20024C27.1489 9.05586 28.0438 9.97546 28.4654 11.5161C27.4773 11.8053 26.851 11.9093 25.8497 12.3011C26.3111 12.8902 27.359 13.1687 28.1023 13.4699C27.6316 15.0146 26.6595 14.6507 25.9348 14.7933C26.9906 16.8377 28.4095 16.9164 29.5451 17.1256C28.8683 19.0608 26.992 20.6707 24.9268 20.6281C25.0531 20.9919 25.5452 21.6903 25.9255 21.7436C24.7859 22.971 23.8178 22.8817 22.4096 22.5939C24.7194 18.2784 22.8537 13.6991 21.9947 12.509C21.8604 12.9995 21.6423 13.4579 20.9136 13.5392C19.8138 11.732 16.7833 10.1687 14.7208 9.71291C14.5479 10.7631 14.8591 11.8839 15.5479 12.6956C14.4469 12.6823 11.9602 11.8213 11.137 11.0883C8.14638 13.366 5.43231 16.0434 7.88574 22.362H7.88441Z" fill="#0176D3"/>
<path d="M5.86851 23.2416C4.49219 23.2416 3.41507 22.5552 3.02146 22.2647C2.94034 22.2047 2.89247 22.1087 2.8938 22.0074C2.89513 21.9061 2.94566 21.8115 3.02944 21.7542C3.88581 21.1638 4.28741 20.8786 4.46028 20.5921C2.95497 20.5961 1.70099 20.2322 0.186378 17.664C0.137176 17.5814 0.129197 17.4801 0.165101 17.3895C0.201005 17.2989 0.275473 17.2309 0.367227 17.2042C1.07467 16.995 1.37919 16.8164 1.76482 16.5898C2.13716 16.3713 2.57997 16.1114 3.49087 15.7702C3.44433 15.7649 3.39779 15.7595 3.35523 15.7542C2.64912 15.6716 1.77147 15.569 1.29142 15.0812C1.22759 15.0159 1.19435 14.9266 1.20233 14.8359C1.2103 14.7453 1.25552 14.6614 1.32865 14.608C1.56668 14.4321 1.86322 13.9137 2.1478 13.4126C2.36189 13.0354 2.57067 12.6702 2.78875 12.373L0.927064 12.3957C0.833979 12.3957 0.734245 12.3517 0.674405 12.2717C0.614565 12.1931 0.59595 12.0892 0.623875 11.9945C1.06802 10.4699 2.34194 8.90391 4.064 7.74442C3.92837 7.65379 3.76879 7.5645 3.62651 7.48587C3.45098 7.38724 3.28608 7.29395 3.1571 7.20066C3.0813 7.14602 3.03476 7.06072 3.02944 6.96743C3.02412 6.87414 3.05869 6.78351 3.12651 6.71954C4.15044 5.7493 6.59058 4.939 8.05466 5.47343C8.11716 4.12869 8.73949 3.25841 9.29667 2.47875C9.78603 1.79372 10.2089 1.20332 10.2009 0.391678C10.2009 0.291722 10.2461 0.197097 10.3259 0.137123C10.4057 0.0771498 10.5094 0.0598241 10.6052 0.0891444C11.7461 0.439656 13.3073 1.76174 13.8711 3.00385C14.9682 2.0776 17.1716 1.27129 18.4588 0.947431C18.5293 0.928773 18.6051 0.93677 18.6703 0.968756C19.262 1.25396 19.7208 1.85636 19.9282 2.62136C20.0612 3.11181 20.0905 4.05539 20.0851 4.89368C24.3271 3.38902 26.6143 5.83193 27.2274 6.64091C27.3018 6.73953 27.3125 6.87147 27.254 6.98076C27.0518 7.35393 26.5532 7.83371 26.1649 8.16157C27.6143 9.04918 28.379 10.0221 28.7659 11.4348C28.8111 11.6 28.7154 11.7706 28.5518 11.8186C28.2313 11.9119 27.9521 11.9852 27.6821 12.0572C27.2619 12.1678 26.883 12.2677 26.4441 12.4183C26.7978 12.6529 27.2806 12.8302 27.722 12.9928C27.8949 13.0567 28.0625 13.118 28.218 13.1807C28.3683 13.242 28.4468 13.4072 28.4002 13.5632C27.9667 14.9839 27.0904 15.0332 26.4455 15.0625C27.3005 16.4232 28.3231 16.5992 29.3164 16.7684C29.4122 16.7844 29.5079 16.8017 29.601 16.8177C29.6914 16.8337 29.7686 16.8897 29.8151 16.9683C29.8603 17.047 29.8696 17.1429 29.8404 17.2295C29.1356 19.2433 27.3364 20.7227 25.4348 20.9199C25.613 21.1798 25.8444 21.4157 25.9707 21.433C26.0864 21.449 26.1822 21.529 26.2221 21.6383C26.2606 21.7489 26.2354 21.8715 26.1569 21.9568C24.9096 23.3015 23.7912 23.1962 22.3498 22.9004C22.2527 22.8804 22.1716 22.8164 22.129 22.7258C22.0865 22.6365 22.0904 22.5312 22.137 22.4446C24.1676 18.6516 22.8431 14.728 22.0466 13.2007C21.8458 13.5205 21.52 13.7857 20.9495 13.8497C20.8298 13.863 20.7115 13.8057 20.6476 13.7018C19.6769 12.1078 17.04 10.6431 14.9934 10.1007C14.9429 10.9603 15.2288 11.8333 15.7873 12.4917C15.8671 12.5849 15.8844 12.7169 15.8325 12.8275C15.7807 12.9381 15.6703 13.0074 15.5493 13.0074C15.5493 13.0074 15.5466 13.0074 15.5453 13.0074C14.4841 12.9954 12.1703 12.2344 11.1344 11.4841C8.21822 13.7351 5.87383 16.31 8.17833 22.246C8.23418 22.3899 8.17833 22.5525 8.04402 22.6312C7.27807 23.079 6.53872 23.2402 5.86984 23.2402L5.86851 23.2416ZM3.76746 22.0061C4.49751 22.4352 5.92037 23.007 7.49616 22.2167C5.15841 15.9315 7.91504 13.1487 10.9483 10.839C11.0666 10.7484 11.2328 10.7551 11.3459 10.8537C11.9855 11.4228 13.7355 12.0785 14.8937 12.3024C14.4429 11.5108 14.2647 10.5658 14.4136 9.66224C14.4269 9.57694 14.4761 9.50231 14.5466 9.453C14.6171 9.40502 14.7062 9.38769 14.79 9.40635C15.8937 9.65024 17.1876 10.1753 18.3378 10.8484C19.2115 11.3588 20.371 12.1705 21.0652 13.194C21.4389 13.0954 21.5811 12.8382 21.6942 12.425C21.7261 12.3091 21.8218 12.2211 21.9402 12.1998C22.0585 12.1785 22.1782 12.2264 22.2487 12.3251C23.2992 13.7791 24.8471 18.2491 22.8777 22.3646C23.9388 22.5525 24.6316 22.5125 25.4042 21.8195C25.0226 21.5077 24.7167 20.9772 24.6316 20.7307C24.5984 20.6334 24.6144 20.5268 24.6742 20.4428C24.734 20.3602 24.8285 20.3135 24.9335 20.3135C26.6436 20.3468 28.3497 19.1287 29.1143 17.3682C28.0119 17.1776 26.6689 16.8964 25.6569 14.9372C25.6117 14.8493 25.6104 14.7453 25.6529 14.6574C25.6955 14.5694 25.7779 14.5054 25.875 14.4854C26.0505 14.4508 26.2314 14.4428 26.4069 14.4348C26.9548 14.4095 27.3989 14.3895 27.7061 13.6525C27.6409 13.6285 27.5758 13.6045 27.5093 13.5792C26.8138 13.3233 26.0266 13.0327 25.605 12.4943C25.5439 12.4157 25.5239 12.3144 25.5492 12.2184C25.5745 12.1225 25.6449 12.0452 25.7367 12.0092C26.4348 11.736 26.9641 11.596 27.5252 11.4481C27.7021 11.4015 27.8829 11.3535 28.0758 11.3002C27.6728 10.0927 26.9162 9.28107 25.4628 8.4721C25.3697 8.42012 25.3085 8.32416 25.3019 8.21621C25.2952 8.10959 25.3444 8.00564 25.4308 7.943C25.7779 7.69111 26.3258 7.19933 26.5957 6.84482C25.863 5.97587 23.7194 4.07938 19.887 5.63735C19.7899 5.67734 19.6782 5.66534 19.5918 5.60537C19.5054 5.54539 19.4535 5.44677 19.4562 5.34015C19.4814 4.10737 19.4349 3.17444 19.3285 2.78128C19.1809 2.23753 18.8817 1.80572 18.4987 1.58048C16.7966 2.02695 14.6238 2.97453 13.9855 3.77018C13.9097 3.86481 13.7873 3.90612 13.6703 3.87947C13.5533 3.85148 13.4615 3.75952 13.4363 3.64091C13.2528 2.79861 11.9881 1.38324 10.7993 0.828817C10.6796 1.62047 10.2382 2.23886 9.80863 2.83859C9.2129 3.67156 8.59721 4.53251 8.68764 5.97054C8.69561 6.09315 8.63045 6.2091 8.52274 6.26641C8.41503 6.32505 8.28338 6.31439 8.18498 6.23975C7.29669 5.56272 5.08394 6.04251 3.88183 6.90479C3.89911 6.91412 3.9164 6.92478 3.93369 6.93411C4.27943 7.12869 4.63847 7.32994 4.83394 7.58849C4.88713 7.65912 4.90841 7.74842 4.89245 7.83505C4.8765 7.92168 4.82464 7.99764 4.74884 8.04429C3.13715 9.04251 1.90179 10.4059 1.36589 11.76L3.57863 11.732C3.73156 11.732 3.85656 11.8333 3.88847 11.9785C3.92039 12.1238 3.84592 12.2717 3.71028 12.3317C3.40576 12.469 3.00949 13.162 2.69301 13.7191C2.45764 14.1323 2.23157 14.5294 1.99753 14.816C2.37785 15.0039 2.94965 15.0705 3.4297 15.1278C4.12517 15.2091 4.67437 15.2744 4.74485 15.7222C4.76878 15.8742 4.67836 16.0221 4.53209 16.0701C3.08396 16.5392 2.55205 16.8511 2.08264 17.1269C1.75019 17.3215 1.45631 17.4948 0.931053 17.6787C2.31535 19.879 3.35922 20.0097 4.87251 19.9523C4.96293 19.9497 5.04937 19.9843 5.11054 20.0496C5.17171 20.1149 5.20362 20.2042 5.19564 20.2935C5.13447 20.9812 4.72357 21.3357 3.76613 22.0034L3.76746 22.0061Z" fill="#0176D3"/>
</svg>

